<svg width="20" height="20" viewBox="0 0 20 20" fill="none" xmlns="http://www.w3.org/2000/svg">
<path d="M7.08334 15.8334H6.66667C3.33334 15.8334 1.66667 15.0001 1.66667 10.8334V6.66675C1.66667 3.33341 3.33334 1.66675 6.66667 1.66675H13.3333C16.6667 1.66675 18.3333 3.33341 18.3333 6.66675V10.8334C18.3333 14.1667 16.6667 15.8334 13.3333 15.8334H12.9167C12.6583 15.8334 12.4083 15.9584 12.25 16.1667L11 17.8334C10.45 18.5667 9.55001 18.5667 9.00001 17.8334L7.75001 16.1667C7.61667 15.9834 7.30834 15.8334 7.08334 15.8334Z" stroke="#4D4D50" stroke-width="1.5" stroke-miterlimit="10" stroke-linecap="round" stroke-linejoin="round"/>
<path opacity="0.4" d="M5.83333 6.66675H14.1667" stroke="#4D4D50" stroke-width="1.5" stroke-linecap="round" stroke-linejoin="round"/>
<path opacity="0.4" d="M5.83333 10.8333H10.8333" stroke="#4D4D50" stroke-width="1.5" stroke-linecap="round" stroke-linejoin="round"/>
</svg>
