<svg width="22" height="22" viewBox="0 0 22 22" fill="none" xmlns="http://www.w3.org/2000/svg">
<path d="M12.4607 7.3247C12.5707 7.07143 12.4546 6.77691 12.2013 6.66688C11.9481 6.55685 11.6536 6.67297 11.5435 6.92624L12.4607 7.3247ZM10.6589 8.9624C10.5489 9.21567 10.665 9.51019 10.9183 9.62022C11.1716 9.73025 11.4661 9.61413 11.5761 9.36086L10.6589 8.9624ZM5.80361 9.2299L5.5139 8.82238L5.51259 8.82332L5.80361 9.2299ZM4.4639 10.1888L4.17288 9.78225L4.17179 9.78303L4.4639 10.1888ZM4.33433 12.4948L4.0003 12.8669L4.00053 12.8671L4.33433 12.4948ZM13.3411 16.4077L13.2968 16.9057L13.2971 16.9058L13.3411 16.4077ZM14.9382 14.7392L15.434 14.6747L15.434 14.6745L14.9382 14.7392ZM14.7248 13.1056L15.2206 13.0408L15.2204 13.0392L14.7248 13.1056ZM15.5031 10.26L15.9616 10.4593L15.9622 10.458L15.5031 10.26ZM11.5435 6.92624L10.6589 8.9624L11.5761 9.36086L12.4607 7.3247L11.5435 6.92624ZM13.393 3.95732C10.8896 2.86974 7.98131 4.0164 6.89373 6.51984L7.81092 6.9183C8.67843 4.92141 10.9977 4.00699 12.9946 4.87451L13.393 3.95732ZM6.89373 6.51984L6.33589 7.8039L7.25307 8.20236L7.81092 6.9183L6.89373 6.51984ZM6.33589 7.8039C6.269 7.95787 6.14143 8.16052 5.98021 8.36034C5.8188 8.56039 5.64869 8.72656 5.5139 8.82239L6.09331 9.63742C6.3266 9.47157 6.56162 9.23225 6.75847 8.98828C6.9555 8.74408 7.13933 8.46418 7.25307 8.20236L6.33589 7.8039ZM5.51259 8.82332L4.17288 9.78225L4.75492 10.5954L6.09463 9.63648L5.51259 8.82332ZM4.17179 9.78303C3.64855 10.1597 3.3408 10.7006 3.30818 11.283C3.27554 11.8657 3.52126 12.4368 4.0003 12.8669L4.66835 12.1228C4.3944 11.8768 4.29245 11.5919 4.30661 11.339C4.32079 11.0859 4.45433 10.8118 4.75601 10.5946L4.17179 9.78303ZM4.00053 12.8671C6.58132 15.1812 9.84412 16.5986 13.2968 16.9057L13.3854 15.9097C10.1478 15.6217 7.08813 14.2925 4.66812 12.1226L4.00053 12.8671ZM13.2971 16.9058C14.5624 17.0175 15.5973 15.9296 15.434 14.6747L14.4424 14.8037C14.5237 15.4286 14.0098 15.9648 13.3851 15.9096L13.2971 16.9058ZM15.434 14.6745L15.2206 13.0408L14.229 13.1703L14.4424 14.804L15.434 14.6745ZM15.2204 13.0392C15.1985 12.876 15.2043 12.6371 15.2408 12.3811C15.2772 12.1254 15.3384 11.894 15.4038 11.7433L14.4866 11.3449C14.3741 11.6039 14.2951 11.9293 14.2508 12.2401C14.2065 12.5505 14.1911 12.8875 14.2292 13.1719L15.2204 13.0392ZM15.4038 11.7433L15.9616 10.4593L15.0445 10.0608L14.4866 11.3449L15.4038 11.7433ZM15.9622 10.458C17.0371 7.96507 15.8845 5.03969 13.393 3.95732L12.9946 4.87451C14.979 5.73661 15.9012 8.07381 15.0439 10.0621L15.9622 10.458ZM10.2911 15.3807C9.91499 16.2464 8.89386 16.649 8.02817 16.2729L7.62971 17.1901C9.00195 17.7862 10.6121 17.1514 11.2083 15.7791L10.2911 15.3807ZM8.02817 16.2729C7.6001 16.0869 7.2791 15.7345 7.11749 15.3246L6.18719 15.6914C6.44056 16.334 6.94492 16.8926 7.62971 17.1901L8.02817 16.2729ZM7.11749 15.3246C6.95588 14.9147 6.94998 14.438 7.13595 14.01L6.21877 13.6115C5.92127 14.2963 5.93381 15.0488 6.18719 15.6914L7.11749 15.3246Z" fill="#AEAEAE"/>
</svg>
